<svg xmlns="http://www.w3.org/2000/svg" width="125.231" height="145.14" viewBox="0 0 125.231 145.14">
  <defs>
    <style>
      .cls-1 {
        fill: none;
        opacity: 0.5;
      }

      .cls-2, .cls-3 {
        stroke: none;
      }

      .cls-3 {
        fill: #fafafa;
      }
    </style>
  </defs>
  <g id="Union_4" data-name="Union 4" class="cls-1">
    <path class="cls-2" d="M0,82.284,12.692,69.544l40.948,41.105V0H71.59V110.649l40.948-41.105,12.692,12.741L62.615,145.14Z"/>
    <path class="cls-3" d="M 62.61516571044922 143.7227020263672 L 123.8193588256836 82.28440856933594 L 112.5386581420898 70.96044158935547 L 72.29866790771484 111.3542861938477 L 70.59020233154297 113.0692672729492 L 70.59020233154297 110.6485290527344 L 70.59020233154297 1.000008940696716 L 54.64068603515625 1.000008940696716 L 54.64068603515625 110.6489715576172 L 54.64068603515625 113.0697326660156 L 52.93222427368164 111.3547286987305 L 12.69222450256348 70.96044921875 L 1.41152822971344 82.28440856933594 L 62.61516571044922 143.7227020263672 M 62.61516571044922 145.1396331787109 L 4.183349574304884e-06 82.28440856933594 L 12.69222450256348 69.54351043701172 L 53.64068603515625 110.6489715576172 L 53.64068603515625 8.959960723586846e-06 L 71.59020233154297 8.959960723586846e-06 L 71.59020233154297 110.6485290527344 L 112.5386657714844 69.54351043701172 L 125.2308807373047 82.28440856933594 L 62.61516571044922 145.1396331787109 Z"/>
  </g>
</svg>
