<?xml version="1.0" encoding="utf-8"?>
<!-- Generator: Adobe Illustrator 23.0.3, SVG Export Plug-In . SVG Version: 6.00 Build 0)  -->
<svg version="1.1" id="Camada_1" xmlns="http://www.w3.org/2000/svg" xmlns:xlink="http://www.w3.org/1999/xlink" x="0px" y="0px"
	 viewBox="0 0 126.5 143.9" style="enable-background:new 0 0 126.5 143.9;" xml:space="preserve">
<style type="text/css">
	.st0{fill:#FFFFFF;}
</style>
<g>
	<path class="st0" d="M26.4,140.5c-7.7,0-13.5-2.7-17.5-8.2C5,126.8,3,118.1,3,106V76.4c0-6.7,0.8-12.7,2.3-18.1s3.9-9.6,7.3-12.8
		c3.3-3.2,7.9-4.8,13.6-4.8c3.5,0,6.7,0.7,9.6,2.1c3,1.4,5.7,3.2,8.1,5.4V3.4h22.8V139H43.8v-6.9c-2.6,2.6-5.3,4.6-8.2,6.1
		C32.7,139.7,29.6,140.5,26.4,140.5z M34.8,124.8c1.2,0,2.6-0.3,4.2-0.8c1.6-0.6,3.2-1.3,4.9-2.3V59.5c-1.3-0.9-2.8-1.6-4.4-2.3
		c-1.6-0.6-3.2-0.9-4.9-0.9c-3.2,0-5.5,1.5-6.8,4.4c-1.3,3-1.9,6.6-1.9,10.8v36.2c0,3.2,0.2,6.1,0.7,8.7c0.4,2.6,1.3,4.6,2.6,6.1
		C30.5,124,32.3,124.8,34.8,124.8z"/>
	<path class="st0" d="M76.1,139V42.2h22.8v14.9c3.3-5.7,6.7-9.8,10-12.3s7-3.8,11-3.8c0.7,0,1.3,0,1.8,0.1c0.5,0.1,1.1,0.1,1.8,0.3
		V65c-1.3-0.6-2.8-1-4.4-1.4c-1.6-0.4-3.3-0.6-4.9-0.6c-3,0-5.7,0.7-8.2,2.2c-2.5,1.5-4.8,3.9-7,7.2V139H76.1z"/>
</g>
</svg>
